<mxfile host="65bd71144e">
    <diagram id="Clx3CYM9aYBjJozJZF0z" name="Main">
        <mxGraphModel dx="809" dy="405" grid="1" gridSize="10" guides="1" tooltips="1" connect="1" arrows="1" fold="1" page="1" pageScale="1" pageWidth="850" pageHeight="1100" math="0" shadow="0">
            <root>
                <mxCell id="0"/>
                <mxCell id="1" parent="0"/>
                <mxCell id="9" value="" style="edgeStyle=none;html=1;fillColor=#a20025;strokeColor=#6F0000;" edge="1" parent="1" source="5" target="8">
                    <mxGeometry relative="1" as="geometry"/>
                </mxCell>
                <mxCell id="5" value="movies" style="rounded=1;whiteSpace=wrap;html=1;" vertex="1" parent="1">
                    <mxGeometry x="20" y="320" width="168" height="40" as="geometry"/>
                </mxCell>
                <mxCell id="8" value="&lt;ol style=&quot;font-size: 8px&quot;&gt;&lt;li&gt;name&lt;/li&gt;&lt;li&gt;description&lt;/li&gt;&lt;li&gt;&lt;span&gt;rating&lt;/span&gt;&lt;/li&gt;&lt;li&gt;likes&lt;/li&gt;&lt;li&gt;dislikes&lt;/li&gt;&lt;li&gt;duration&lt;/li&gt;&lt;li&gt;cover_id&lt;/li&gt;&lt;/ol&gt;" style="rounded=1;whiteSpace=wrap;html=1;align=left;" vertex="1" parent="1">
                    <mxGeometry x="20" y="390" width="110" height="180" as="geometry"/>
                </mxCell>
                <mxCell id="10" value="categories" style="rounded=1;whiteSpace=wrap;html=1;" vertex="1" parent="1">
                    <mxGeometry x="369" y="320" width="120" height="40" as="geometry"/>
                </mxCell>
                <mxCell id="11" value="tags" style="rounded=1;whiteSpace=wrap;html=1;" vertex="1" parent="1">
                    <mxGeometry x="369" y="370" width="120" height="40" as="geometry"/>
                </mxCell>
                <mxCell id="12" value="movies_files" style="rounded=1;whiteSpace=wrap;html=1;" vertex="1" parent="1">
                    <mxGeometry x="169" y="430" width="120" height="40" as="geometry"/>
                </mxCell>
                <mxCell id="34" style="edgeStyle=none;html=1;entryX=1.018;entryY=0.827;entryDx=0;entryDy=0;entryPerimeter=0;fontSize=8;" edge="1" parent="1" source="13" target="8">
                    <mxGeometry relative="1" as="geometry"/>
                </mxCell>
                <mxCell id="35" value="One to One" style="edgeLabel;html=1;align=center;verticalAlign=middle;resizable=0;points=[];fontSize=8;" vertex="1" connectable="0" parent="34">
                    <mxGeometry x="-0.3032" y="-3" relative="1" as="geometry">
                        <mxPoint as="offset"/>
                    </mxGeometry>
                </mxCell>
                <mxCell id="13" value="movies_covers" style="rounded=1;whiteSpace=wrap;html=1;" vertex="1" parent="1">
                    <mxGeometry x="169" y="560" width="120" height="40" as="geometry"/>
                </mxCell>
                <mxCell id="14" value="" style="endArrow=classic;html=1;fontSize=8;entryX=0;entryY=0.5;entryDx=0;entryDy=0;exitX=1;exitY=0.5;exitDx=0;exitDy=0;" edge="1" parent="1" source="5" target="10">
                    <mxGeometry width="50" height="50" relative="1" as="geometry">
                        <mxPoint x="169" y="420" as="sourcePoint"/>
                        <mxPoint x="299" y="340" as="targetPoint"/>
                    </mxGeometry>
                </mxCell>
                <mxCell id="15" value="Many To Many" style="edgeLabel;html=1;align=center;verticalAlign=middle;resizable=0;points=[];fontSize=8;" vertex="1" connectable="0" parent="14">
                    <mxGeometry x="-0.2398" y="3" relative="1" as="geometry">
                        <mxPoint as="offset"/>
                    </mxGeometry>
                </mxCell>
                <mxCell id="16" value="" style="endArrow=classic;html=1;fontSize=8;exitX=1;exitY=0.5;exitDx=0;exitDy=0;entryX=0;entryY=0.5;entryDx=0;entryDy=0;" edge="1" parent="1" source="5" target="11">
                    <mxGeometry width="50" height="50" relative="1" as="geometry">
                        <mxPoint x="159" y="440" as="sourcePoint"/>
                        <mxPoint x="299" y="390" as="targetPoint"/>
                    </mxGeometry>
                </mxCell>
                <mxCell id="17" value="Many To Many" style="edgeLabel;html=1;align=center;verticalAlign=middle;resizable=0;points=[];fontSize=8;" vertex="1" connectable="0" parent="16">
                    <mxGeometry x="-0.2949" y="-3" relative="1" as="geometry">
                        <mxPoint as="offset"/>
                    </mxGeometry>
                </mxCell>
                <mxCell id="18" value="" style="endArrow=classic;html=1;fontSize=8;exitX=1.015;exitY=0.659;exitDx=0;exitDy=0;exitPerimeter=0;entryX=0;entryY=0.5;entryDx=0;entryDy=0;" edge="1" parent="1" source="8" target="12">
                    <mxGeometry width="50" height="50" relative="1" as="geometry">
                        <mxPoint x="159" y="440" as="sourcePoint"/>
                        <mxPoint x="209" y="390" as="targetPoint"/>
                    </mxGeometry>
                </mxCell>
                <mxCell id="19" value="One To Many" style="edgeLabel;html=1;align=center;verticalAlign=middle;resizable=0;points=[];fontSize=8;" vertex="1" connectable="0" parent="18">
                    <mxGeometry x="-0.1544" y="-1" relative="1" as="geometry">
                        <mxPoint as="offset"/>
                    </mxGeometry>
                </mxCell>
                <mxCell id="29" style="edgeStyle=none;html=1;entryX=1;entryY=0.5;entryDx=0;entryDy=0;fontSize=8;" edge="1" parent="1" source="21" target="28">
                    <mxGeometry relative="1" as="geometry"/>
                </mxCell>
                <mxCell id="21" value="series" style="rounded=1;whiteSpace=wrap;html=1;" vertex="1" parent="1">
                    <mxGeometry x="640" y="320" width="168" height="40" as="geometry"/>
                </mxCell>
                <mxCell id="23" value="" style="edgeStyle=none;html=1;fontSize=8;fillColor=#d80073;strokeColor=#A50040;" edge="1" parent="1" source="22" target="21">
                    <mxGeometry relative="1" as="geometry"/>
                </mxCell>
                <mxCell id="22" value="&lt;ol style=&quot;font-size: 8px&quot;&gt;&lt;li&gt;name&lt;/li&gt;&lt;li&gt;description&lt;/li&gt;&lt;li&gt;category_id&lt;/li&gt;&lt;li&gt;rating&lt;/li&gt;&lt;li&gt;&lt;span&gt;likes&lt;/span&gt;&lt;br&gt;&lt;/li&gt;&lt;li&gt;dislikes&lt;/li&gt;&lt;li&gt;&lt;span&gt;cover_id&lt;/span&gt;&lt;br&gt;&lt;/li&gt;&lt;/ol&gt;" style="rounded=1;whiteSpace=wrap;html=1;align=left;" vertex="1" parent="1">
                    <mxGeometry x="710" y="400" width="110" height="150" as="geometry"/>
                </mxCell>
                <mxCell id="24" value="" style="endArrow=classic;html=1;fontSize=8;entryX=1;entryY=0.5;entryDx=0;entryDy=0;exitX=0;exitY=0.5;exitDx=0;exitDy=0;" edge="1" parent="1" source="21" target="10">
                    <mxGeometry width="50" height="50" relative="1" as="geometry">
                        <mxPoint x="640" y="410" as="sourcePoint"/>
                        <mxPoint x="570.0000000000002" y="340" as="targetPoint"/>
                    </mxGeometry>
                </mxCell>
                <mxCell id="25" value="Many To Many" style="edgeLabel;html=1;align=center;verticalAlign=middle;resizable=0;points=[];fontSize=8;" vertex="1" connectable="0" parent="24">
                    <mxGeometry x="-0.2398" y="3" relative="1" as="geometry">
                        <mxPoint as="offset"/>
                    </mxGeometry>
                </mxCell>
                <mxCell id="26" value="" style="endArrow=classic;html=1;fontSize=8;exitX=0;exitY=0.5;exitDx=0;exitDy=0;entryX=1;entryY=0.5;entryDx=0;entryDy=0;" edge="1" parent="1" source="21" target="11">
                    <mxGeometry width="50" height="50" relative="1" as="geometry">
                        <mxPoint x="319.55999999999995" y="461" as="sourcePoint"/>
                        <mxPoint x="570.0000000000002" y="390" as="targetPoint"/>
                    </mxGeometry>
                </mxCell>
                <mxCell id="27" value="Many To Many" style="edgeLabel;html=1;align=center;verticalAlign=middle;resizable=0;points=[];fontSize=8;" vertex="1" connectable="0" parent="26">
                    <mxGeometry x="-0.2949" y="-3" relative="1" as="geometry">
                        <mxPoint as="offset"/>
                    </mxGeometry>
                </mxCell>
                <mxCell id="33" value="One To Many" style="edgeStyle=none;html=1;fontSize=8;" edge="1" parent="1" source="28" target="31">
                    <mxGeometry relative="1" as="geometry"/>
                </mxCell>
                <mxCell id="28" value="seasons" style="rounded=1;whiteSpace=wrap;html=1;" vertex="1" parent="1">
                    <mxGeometry x="520" y="480" width="120" height="40" as="geometry"/>
                </mxCell>
                <mxCell id="31" value="episodes" style="rounded=1;whiteSpace=wrap;html=1;" vertex="1" parent="1">
                    <mxGeometry x="520" y="560" width="120" height="40" as="geometry"/>
                </mxCell>
                <mxCell id="37" style="edgeStyle=none;html=1;entryX=1;entryY=0.5;entryDx=0;entryDy=0;fontSize=8;" edge="1" parent="1" source="36" target="28">
                    <mxGeometry relative="1" as="geometry"/>
                </mxCell>
                <mxCell id="38" value="One to Many" style="edgeLabel;html=1;align=center;verticalAlign=middle;resizable=0;points=[];fontSize=8;" vertex="1" connectable="0" parent="37">
                    <mxGeometry x="-0.3159" relative="1" as="geometry">
                        <mxPoint as="offset"/>
                    </mxGeometry>
                </mxCell>
                <mxCell id="36" value="seasons_covers" style="rounded=1;whiteSpace=wrap;html=1;" vertex="1" parent="1">
                    <mxGeometry x="650" y="560" width="120" height="40" as="geometry"/>
                </mxCell>
                <mxCell id="39" value="" style="endArrow=classic;html=1;fontSize=8;entryX=0.25;entryY=1;entryDx=0;entryDy=0;" edge="1" parent="1" target="21">
                    <mxGeometry width="50" height="50" relative="1" as="geometry">
                        <mxPoint x="590" y="480" as="sourcePoint"/>
                        <mxPoint x="640" y="440" as="targetPoint"/>
                    </mxGeometry>
                </mxCell>
                <mxCell id="41" value="One To Many" style="edgeLabel;html=1;align=center;verticalAlign=middle;resizable=0;points=[];fontSize=8;" vertex="1" connectable="0" parent="39">
                    <mxGeometry x="-0.4606" y="-3" relative="1" as="geometry">
                        <mxPoint as="offset"/>
                    </mxGeometry>
                </mxCell>
                <mxCell id="46" style="edgeStyle=none;html=1;entryX=0;entryY=0.5;entryDx=0;entryDy=0;fontSize=8;" edge="1" parent="1" source="43" target="44">
                    <mxGeometry relative="1" as="geometry"/>
                </mxCell>
                <mxCell id="49" value="One To Many" style="edgeLabel;html=1;align=center;verticalAlign=middle;resizable=0;points=[];fontSize=8;" vertex="1" connectable="0" parent="46">
                    <mxGeometry x="0.2999" relative="1" as="geometry">
                        <mxPoint as="offset"/>
                    </mxGeometry>
                </mxCell>
                <mxCell id="47" style="edgeStyle=none;html=1;entryX=0;entryY=0.5;entryDx=0;entryDy=0;fontSize=8;" edge="1" parent="1" source="43" target="45">
                    <mxGeometry relative="1" as="geometry"/>
                </mxCell>
                <mxCell id="50" value="One To Many" style="edgeLabel;html=1;align=center;verticalAlign=middle;resizable=0;points=[];fontSize=8;" vertex="1" connectable="0" parent="47">
                    <mxGeometry x="-0.1797" relative="1" as="geometry">
                        <mxPoint as="offset"/>
                    </mxGeometry>
                </mxCell>
                <mxCell id="53" style="edgeStyle=none;html=1;entryX=0;entryY=0.5;entryDx=0;entryDy=0;fontSize=8;" edge="1" parent="1" source="43" target="51">
                    <mxGeometry relative="1" as="geometry">
                        <Array as="points">
                            <mxPoint x="260" y="140"/>
                        </Array>
                    </mxGeometry>
                </mxCell>
                <mxCell id="55" value="One To Many" style="edgeLabel;html=1;align=center;verticalAlign=middle;resizable=0;points=[];fontSize=8;" vertex="1" connectable="0" parent="53">
                    <mxGeometry x="-0.0051" y="3" relative="1" as="geometry">
                        <mxPoint as="offset"/>
                    </mxGeometry>
                </mxCell>
                <mxCell id="54" style="edgeStyle=none;html=1;entryX=0;entryY=0.5;entryDx=0;entryDy=0;fontSize=8;" edge="1" parent="1" source="43" target="52">
                    <mxGeometry relative="1" as="geometry"/>
                </mxCell>
                <mxCell id="56" value="One To Many" style="edgeLabel;html=1;align=center;verticalAlign=middle;resizable=0;points=[];fontSize=8;" vertex="1" connectable="0" parent="54">
                    <mxGeometry x="0.0944" relative="1" as="geometry">
                        <mxPoint as="offset"/>
                    </mxGeometry>
                </mxCell>
                <mxCell id="43" value="users" style="rounded=1;whiteSpace=wrap;html=1;" vertex="1" parent="1">
                    <mxGeometry x="40" y="40" width="168" height="40" as="geometry"/>
                </mxCell>
                <mxCell id="44" value="favorite_movies" style="rounded=1;whiteSpace=wrap;html=1;" vertex="1" parent="1">
                    <mxGeometry x="341" y="40" width="168" height="40" as="geometry"/>
                </mxCell>
                <mxCell id="45" value="favorite_series" style="rounded=1;whiteSpace=wrap;html=1;" vertex="1" parent="1">
                    <mxGeometry x="341" y="100" width="168" height="40" as="geometry"/>
                </mxCell>
                <mxCell id="51" value="queue_movies" style="rounded=1;whiteSpace=wrap;html=1;" vertex="1" parent="1">
                    <mxGeometry x="341" y="160" width="168" height="40" as="geometry"/>
                </mxCell>
                <mxCell id="52" value="queue_series" style="rounded=1;whiteSpace=wrap;html=1;" vertex="1" parent="1">
                    <mxGeometry x="341" y="220" width="168" height="40" as="geometry"/>
                </mxCell>
            </root>
        </mxGraphModel>
    </diagram>
</mxfile>